<?xml version="1.0" encoding="iso-8859-1"?>
<!-- Generator: Adobe Illustrator 19.0.0, SVG Export Plug-In . SVG Version: 6.00 Build 0)  -->
<svg version="1.1" id="Layer_1" xmlns="http://www.w3.org/2000/svg" xmlns:xlink="http://www.w3.org/1999/xlink" x="0px" y="0px"
	 viewBox="0 0 506.861 506.861" style="enable-background:new 0 0 506.861 506.861;" xml:space="preserve">
<g>
	<path style="fill:#13A289;" d="M302,44.43c0-3.2-2.8-6-6-6H12c-3.2,0-6,2.8-6,6v16c0,3.2,2.8,6,6,6h284c3.2,0,6-2.8,6-6V44.43z"/>
	<path style="fill:#13A289;" d="M350,36.03v60c0,0,116,0,148,108C498,204.03,502,36.03,350,36.03z"/>
	<path style="fill:#13A289;" d="M302,120.43c0-3.2-2.8-6-6-6H12c-3.2,0-6,2.8-6,6v16c0,3.2,2.8,6,6,6h284c3.2,0,6-2.8,6-6V120.43z"
		/>
	<path style="fill:#13A289;" d="M302,196.43c0-3.2-2.8-6-6-6H12c-3.2,0-6,2.8-6,6v16c0,3.2,2.8,6,6,6h284c3.2,0,6-2.8,6-6V196.43z"
		/>
	<path style="fill:#13A289;" d="M302,272.43c0-3.2-2.8-6-6-6H12c-3.2,0-6,2.8-6,6v16c0,3.2,2.8,6,6,6h284c3.2,0,6-2.8,6-6V272.43z"
		/>
	<path style="fill:#13A289;" d="M297.2,366.43c-28.8,0-52,23.2-52,52s23.2,52,52,52s52-23.2,52-52S325.6,366.43,297.2,366.43z"/>
</g>
<path style="fill:#CCCCCC;" d="M348.4,38.83l0.4,0.8v-0.8C348.8,38.83,348.8,38.83,348.4,38.83z"/>
<path d="M296,72.43H12c-6.8,0-12-5.2-12-12v-16c0-6.8,5.2-12,12-12h284c6.8,0,12,5.2,12,12v16C308,67.23,302.8,72.43,296,72.43z
	 M12,40.43c-2.4,0-4,1.6-4,4v16c0,2.4,1.6,4,4,4h284c2.4,0,4-1.6,4-4v-16c0-2.4-1.6-4-4-4H12z"/>
<path d="M296,148.43H12c-6.8,0-12-5.2-12-12v-16c0-6.8,5.2-12,12-12h284c6.8,0,12,5.2,12,12v16C308,143.23,302.8,148.43,296,148.43z
	 M12,116.43c-2.4,0-4,1.6-4,4v16c0,2.4,1.6,4,4,4h284c2.4,0,4-1.6,4-4v-16c0-2.4-1.6-4-4-4H12z"/>
<path d="M296,224.43H12c-6.8,0-12-5.2-12-12v-16c0-6.8,5.2-12,12-12h284c6.8,0,12,5.2,12,12v16C308,219.23,302.8,224.43,296,224.43z
	 M12,192.43c-2.4,0-4,1.6-4,4v16c0,2.4,1.6,4,4,4h284c2.4,0,4-1.6,4-4v-16c0-2.4-1.6-4-4-4H12z"/>
<path d="M296,300.43H12c-6.8,0-12-5.2-12-12v-16c0-6.8,5.2-12,12-12h284c6.8,0,12,5.2,12,12v16C308,295.23,302.8,300.43,296,300.43z
	 M12,268.43c-2.4,0-4,1.6-4,4v16c0,2.4,1.6,4,4,4h284c2.4,0,4-1.6,4-4v-16c0-2.4-1.6-4-4-4H12z"/>
<path d="M348,402.43c-2.4,0-4-1.6-4-4v-364c0-2.4,1.6-4,4-4s4,1.6,4,4v364C352,400.83,350.4,402.43,348,402.43z"/>
<path d="M296.8,476.83c-32,0-58-26-58-58s26-58,58-58s58,26,58,58S328.8,476.83,296.8,476.83z M296.8,368.43c-27.6,0-50,22.4-50,50
	s22.4,50,50,50s50-22.4,50-50S324.4,368.43,296.8,368.43z"/>
<path d="M296.8,448.43c-16.4,0-29.6-13.2-29.6-29.6s13.2-29.6,29.6-29.6c2.4,0,4,1.6,4,4s-1.6,4-4,4c-12,0-21.6,9.6-21.6,21.6
	s9.6,21.6,21.6,21.6s21.6-9.6,21.6-21.6c0-2.4,1.6-4,4-4s4,1.6,4,4C326.4,434.83,313.2,448.43,296.8,448.43z"/>
<path d="M502.8,248.03c-2,0-4-1.6-4-3.6l-4-63.6c0-76-68.4-142.8-146-142.8c-2.4,0-4-1.6-4-4s1.6-4,4-4c83.6,0,154,68.8,154,150.4
	l4,63.2C507.2,246.03,505.6,248.03,502.8,248.03C503.2,248.03,503.2,248.03,502.8,248.03z"/>
<path d="M502.8,246.43c-2.4,0-4-1.6-4-4c0-74.8-70-140-150-140c-2.4,0-4-1.6-4-4s1.6-4,4-4c84,0,158,69.2,158,148
	C506.8,244.83,505.2,246.43,502.8,246.43z"/>
<g>
</g>
<g>
</g>
<g>
</g>
<g>
</g>
<g>
</g>
<g>
</g>
<g>
</g>
<g>
</g>
<g>
</g>
<g>
</g>
<g>
</g>
<g>
</g>
<g>
</g>
<g>
</g>
<g>
</g>
</svg>
